<?xml version="1.0" encoding="iso-8859-1"?>
<!-- Uploaded to: SVG Repo, www.svgrepo.com, Generator: SVG Repo Mixer Tools -->
<svg fill="#000000" height="800px" width="800px" version="1.1" id="Layer_1" xmlns="http://www.w3.org/2000/svg" xmlns:xlink="http://www.w3.org/1999/xlink" 
	 viewBox="0 0 512 512" xml:space="preserve">
<g>
	<g>
		<path d="M0,75.848v61.05c0,68.378,26.63,132.665,74.981,181.017c17.928,17.927,38.05,32.859,59.754,44.564h-15.133
			c-20.313,0-36.84,16.525-36.84,36.835c0,20.313,16.527,36.839,36.84,36.839h272.794c20.314,0,36.84-16.526,36.84-36.839
			c0-20.31-16.527-36.835-36.84-36.835h-15.133c21.704-11.705,41.826-26.637,59.754-44.564C485.37,269.563,512,205.276,512,136.898
			v-61.05H0z M392.397,392.892c3.542,0,6.425,2.88,6.425,6.42c0,3.541-2.882,6.424-6.425,6.424H119.603
			c-3.542,0-6.425-2.882-6.425-6.424c0-3.539,2.882-6.42,6.425-6.42H392.397z M255.995,362.477
			c-52.76,0-102.758-17.995-142.985-51.078c4.98-2.808,8.901-6.098,12.275-8.932c6.322-5.309,9.806-8.234,18.315-8.234
			c8.508,0,11.991,2.925,18.313,8.234c7.717,6.48,18.287,15.356,37.871,15.356c19.584,0,30.155-8.875,37.872-15.356
			c6.322-5.309,9.806-8.234,18.314-8.234c8.51,0,11.993,2.925,18.315,8.234c7.718,6.48,18.289,15.356,37.873,15.356
			c19.586,0,30.156-8.875,37.874-15.356c6.322-5.309,9.806-8.234,18.315-8.234c8.511,0,11.994,2.925,18.318,8.234
			c3.38,2.839,7.309,6.136,12.301,8.945C358.743,344.487,308.752,362.477,255.995,362.477z M424.036,287.396
			c-8.134-0.119-11.615-3.023-17.808-8.223c-7.718-6.479-18.289-15.355-37.874-15.355c-19.585,0-30.155,8.875-37.873,15.356
			c-6.322,5.309-9.807,8.234-18.316,8.234c-8.509,0-11.993-2.925-18.315-8.234c-7.718-6.48-18.289-15.356-37.873-15.356
			s-30.155,8.875-37.872,15.356c-6.322,5.309-9.806,8.234-18.314,8.234c-8.508,0-11.991-2.925-18.313-8.234
			c-7.717-6.48-18.288-15.356-37.871-15.356c-19.585,0-30.155,8.875-37.873,15.356c-6.18,5.19-9.661,8.093-17.764,8.221
			c-14.196-15.811-25.931-33.305-35.023-52.011h406.117C449.968,254.091,438.232,271.585,424.036,287.396z M481.585,136.898
			c0,23.443-3.568,46.335-10.417,68.072H40.833c-6.85-21.738-10.417-44.63-10.417-68.073v-30.633h451.169V136.898z"/>
	</g>
</g>
<g>
	<g>
		<circle cx="85.407" cy="154.571" r="17.882"/>
	</g>
</g>
<g>
	<g>
		<circle cx="153.639" cy="154.571" r="17.882"/>
	</g>
</g>
<g>
	<g>
		<circle cx="221.881" cy="154.571" r="17.882"/>
	</g>
</g>
<g>
	<g>
		<circle cx="290.123" cy="154.571" r="17.882"/>
	</g>
</g>
<g>
	<g>
		<circle cx="358.355" cy="154.571" r="17.882"/>
	</g>
</g>
<g>
	<g>
		<circle cx="426.597" cy="154.571" r="17.882"/>
	</g>
</g>
</svg>