<?xml version="1.0" encoding="UTF-8"?>
<svg xmlns="http://www.w3.org/2000/svg" id="Layer_1" data-name="Layer 1" viewBox="0 0 24 24">
  <path d="m12,13c-2.67,0-3.963,2.224-4.334,3,.369.775,1.662,3,4.334,3s3.963-2.223,4.334-3c-.371-.777-1.664-3-4.334-3Zm0,4.5c-.828,0-1.5-.672-1.5-1.5s.672-1.5,1.5-1.5,1.5.672,1.5,1.5-.672,1.5-1.5,1.5Zm9-7.597v-3.76c0-2.11-1.578-3.92-3.593-4.123-.627-.062-1.243.036-1.816.252-.647-1.339-2.007-2.272-3.591-2.272s-2.95.936-3.596,2.279c-.318-.125-.647-.224-.997-.259-1.135-.112-2.255.257-3.091,1.014-.837.757-1.316,1.838-1.316,2.966v3.903c-1.291.618-2.421,1.852-3,3.011v2.09h1.5c1.208,0,1.482.823,1.5,1.496,0,4.136,3.364,7.5,7.5,7.5h3c4.136,0,7.5-3.364,7.5-7.482.018-.69.292-1.514,1.5-1.514h1.5v-2.09c-.579-1.159-1.709-2.393-3-3.011Zm-3,6.597c0,2.481-2.019,4.5-4.5,4.5h-3c-2.481,0-4.5-2.019-4.5-4.5,0-1.225-.55-2.854-1.931-3.776.262-.145.558-.27.887-.375l1.044-.333v-6.016c0-.286.117-.549.329-.742.123-.112.389-.296.779-.253.491.049.892.56.892,1.137v4.857h3v-7c0-.551.448-1,1-1s1,.449,1,1v7h3v-5c0-.286.117-.549.329-.742.123-.112.39-.296.779-.253.491.049.892.56.892,1.137v5.874l1.044.333c.329.104.625.23.887.375-1.381.923-1.931,2.552-1.931,3.776Z"/>
</svg>
