<svg xmlns="http://www.w3.org/2000/svg" xmlns:xlink="http://www.w3.org/1999/xlink" version="1.1" id="Layer_1" x="0px" y="0px" width="100%" viewBox="0 0 287 394" enable-background="new 0 0 287 394" xml:space="preserve">
<path fill="#1a320e" opacity="1.000000" stroke="none" d=" M170.000000,395.000000   C113.333344,395.000000 57.166687,395.000000 1.000023,395.000000   C1.000015,263.666687 1.000015,132.333405 1.000008,1.000075   C96.666618,1.000050 192.333237,1.000050 287.999878,1.000025   C287.999939,132.333267 287.999939,263.666534 287.999969,394.999878   C248.833328,395.000000 209.666672,395.000000 170.000000,395.000000  M78.799500,281.594818   C83.959297,289.902832 89.119095,298.210846 94.278893,306.518860   C94.772774,306.268738 95.266655,306.018585 95.760536,305.768433   C95.806007,305.175781 95.986900,304.556824 95.877602,303.994232   C89.373337,270.512390 99.176201,240.684662 117.421555,213.297318   C128.893021,196.078003 142.234390,180.116821 154.221024,163.225128   C169.255356,142.038605 181.766861,119.416489 190.902054,95.004692   C192.525620,90.666100 192.677505,86.968628 189.756042,82.934464   C186.553040,78.511528 184.147781,73.513885 181.355118,68.790192   C176.067139,59.845726 170.750702,50.918079 165.402817,41.910549   C164.769669,42.450981 164.416290,42.603237 164.325241,42.851658   C157.642319,61.084000 151.512482,79.541435 144.173264,97.504829   C136.119690,117.216629 125.048050,135.380020 112.117973,152.309219   C101.230011,166.564697 90.097740,180.578384 82.372177,196.971909   C69.413818,224.469315 66.316933,252.291367 78.799500,281.594818  M222.533249,155.940140   C224.744675,151.337860 224.149063,147.089157 221.448502,142.774414   C219.339111,139.404221 217.818726,135.666763 216.015839,132.103027   C212.158325,124.477905 208.287323,116.859604 204.414398,109.223824   C196.359970,124.932579 189.375061,140.568069 180.611969,155.133789   C169.804489,173.097672 158.064651,190.570419 145.710724,207.513885   C134.079239,223.466492 121.555794,238.699921 114.199913,257.340515   C103.326401,284.895233 103.262337,311.900635 118.552414,337.877869   C122.983871,345.406769 128.819885,352.109009 134.012039,359.190186   C135.021088,357.638611 135.302551,356.748627 135.096100,355.991730   C126.925919,326.038849 134.366684,298.750732 150.301361,273.457397   C158.669449,260.174591 168.851990,248.038574 178.151642,235.338196   C196.036652,210.912888 212.184723,185.507935 222.533249,155.940140  z"/>
<path fill="#7dc347" opacity="1.000000" stroke="none" d=" M78.669243,281.236328   C66.316933,252.291367 69.413818,224.469315 82.372177,196.971909   C90.097740,180.578384 101.230011,166.564697 112.117973,152.309219   C125.048050,135.380020 136.119690,117.216629 144.173264,97.504829   C151.512482,79.541435 157.642319,61.084000 164.325241,42.851658   C164.416290,42.603237 164.769669,42.450981 165.402817,41.910549   C170.750702,50.918079 176.067139,59.845726 181.355118,68.790192   C184.147781,73.513885 186.553040,78.511528 189.756042,82.934464   C192.677505,86.968628 192.525620,90.666100 190.902054,95.004692   C181.766861,119.416489 169.255356,142.038605 154.221024,163.225128   C142.234390,180.116821 128.893021,196.078003 117.421555,213.297318   C99.176201,240.684662 89.373337,270.512390 95.877602,303.994232   C95.986900,304.556824 95.806007,305.175781 95.760536,305.768433   C95.266655,306.018585 94.772774,306.268738 94.278893,306.518860   C89.119095,298.210846 83.959297,289.902832 78.669243,281.236328  z"/>
<path fill="#7dc347" opacity="1.000000" stroke="none" d=" M222.357605,156.302429   C212.184723,185.507935 196.036652,210.912888 178.151642,235.338196   C168.851990,248.038574 158.669449,260.174591 150.301361,273.457397   C134.366684,298.750732 126.925919,326.038849 135.096100,355.991730   C135.302551,356.748627 135.021088,357.638611 134.012039,359.190186   C128.819885,352.109009 122.983871,345.406769 118.552414,337.877869   C103.262337,311.900635 103.326401,284.895233 114.199913,257.340515   C121.555794,238.699921 134.079239,223.466492 145.710724,207.513885   C158.064651,190.570419 169.804489,173.097672 180.611969,155.133789   C189.375061,140.568069 196.359970,124.932579 204.414398,109.223824   C208.287323,116.859604 212.158325,124.477905 216.015839,132.103027   C217.818726,135.666763 219.339111,139.404221 221.448502,142.774414   C224.149063,147.089157 224.744675,151.337860 222.357605,156.302429  z"/>
</svg>