<svg id="Layer_1" viewBox="0 0 24 24" xmlns="http://www.w3.org/2000/svg" data-name="Layer 1"><path d="m10.714 0c-3.609 0-6.347.976-7.322 2.484-.244.378-.391.814-.392 1.266 0 1.241 1.009 2.25 2.25 2.25.36 0 .696-.093.998-.244.371.734 1.124 1.244 2.002 1.244 1.154 0 2.096-.876 2.224-1.996 2.188 1.196 3.618 3.724 3.513 6.683-1.82-1.697-4.359-2.687-7.344-2.687-3.266 0-6.643 1.403-6.643 3.75 0 1.24 1.009 2.25 2.25 2.25.36 0 .696-.093.998-.244.371.734 1.124 1.244 2.002 1.244.748 0 1.406-.37 1.816-.933.561.609.934 1.536.934 2.933 0 1.654-1.346 3-3 3h-5v3h5c3.309 0 6-2.691 6-6 0-2.639-1.033-4.697-2.806-5.88 3.575.569 5.806 3.142 5.806 6.88v5h3v-5c0-1.524-.291-2.926-.819-4.171.527-1.039.819-2.176.819-3.329 0-3.41-1.424-6.327-3.706-8.183 4.478 1.088 7.706 4.946 7.706 9.683v11h3v-11c0-7.29-5.836-13-13.286-13z"/></svg>