<?xml version="1.0" encoding="UTF-8"?>
<svg xmlns="http://www.w3.org/2000/svg" id="Layer_1" data-name="Layer 1" viewBox="0 0 24 24">
  <path d="m24,6.5l-2.068-.886c-.435-3.165-3.15-5.614-6.432-5.614-3.584,0-6.5,2.916-6.5,6.5v.5c0,1.654-1.346,3-3,3s-3-1.346-3-3H0v4C0,16.024,3.39,20.263,8,21.573v2.426h3v-2c.684,0,1.35-.071,2-.191v2.191h3v-3.214c3.556-1.825,6-5.521,6-9.785v-2.143l2-.857v-1.5ZM3.097,12.25c.86.478,1.851.75,2.902.75,1.093,0,2.116-.299,3-.812v.311c0,2.143-1.697,3.883-3.816,3.981-1.08-1.146-1.831-2.606-2.086-4.231Zm15.902-1.25c0,4.411-3.589,8-8,8-.889,0-1.742-.153-2.542-.422,2.112-1.207,3.542-3.477,3.542-6.078v-6c0-1.93,1.57-3.5,3.5-3.5s3.5,1.57,3.5,3.5v4.5Zm-2-4.5c0,.828-.672,1.5-1.5,1.5s-1.5-.672-1.5-1.5.672-1.5,1.5-1.5,1.5.672,1.5,1.5Z"/>
</svg>
